<svg width="110" height="54" viewBox="0 0 110 54" fill="none" xmlns="http://www.w3.org/2000/svg">
<g filter="url(#filter0_d_365_10662)">
<path d="M107 47.4062L7.61691 47.4062C5.94768 47.4062 5.01295 45.4821 6.04476 44.17L20.3802 25.9398C20.9507 25.2144 20.9507 24.1927 20.3802 23.4673L6.04476 5.23711C5.01295 3.92498 5.94767 2.00084 7.61691 2.00084L107 2.00084L107 47.4062Z" fill="#0075D5"/>
</g>
<path d="M47.1176 12.432C46.6589 12.432 46.2483 12.5227 45.8856 12.704C45.5336 12.8853 45.2349 13.1467 44.9896 13.488C44.7443 13.8187 44.5576 14.224 44.4296 14.704C44.3123 15.184 44.2536 15.7227 44.2536 16.32C44.2536 17.1307 44.3496 17.824 44.5416 18.4C44.7443 18.9653 45.0589 19.3973 45.4856 19.696C45.9123 19.9947 46.4563 20.144 47.1176 20.144C47.5869 20.144 48.0509 20.0907 48.5096 19.984C48.9789 19.8773 49.4856 19.728 50.0296 19.536V21.568C49.5283 21.7707 49.0323 21.92 48.5416 22.016C48.0509 22.112 47.5016 22.16 46.8936 22.16C45.7203 22.16 44.7496 21.92 43.9816 21.44C43.2243 20.9493 42.6643 20.2667 42.3016 19.392C41.9389 18.5067 41.7576 17.4773 41.7576 16.304C41.7576 15.44 41.8749 14.6507 42.1096 13.936C42.3443 13.2107 42.6856 12.5867 43.1336 12.064C43.5923 11.5413 44.1523 11.136 44.8136 10.848C45.4856 10.56 46.2536 10.416 47.1176 10.416C47.6829 10.416 48.2483 10.4907 48.8136 10.64C49.3896 10.7787 49.9389 10.9707 50.4616 11.216L49.6776 13.184C49.2509 12.9813 48.8189 12.8053 48.3816 12.656C47.9549 12.5067 47.5336 12.432 47.1176 12.432ZM51.0171 13.264H53.6251L55.2731 18.176C55.3264 18.336 55.3691 18.496 55.4011 18.656C55.4438 18.816 55.4758 18.9813 55.4971 19.152C55.5291 19.3227 55.5504 19.504 55.5611 19.696H55.6091C55.6411 19.4187 55.6838 19.1573 55.7371 18.912C55.8011 18.656 55.8704 18.4107 55.9451 18.176L57.5611 13.264H60.1211L56.4251 23.12C56.2011 23.7173 55.9078 24.2187 55.5451 24.624C55.1931 25.0293 54.7824 25.3333 54.3131 25.536C53.8438 25.7387 53.3318 25.84 52.7771 25.84C52.5104 25.84 52.2758 25.824 52.0731 25.792C51.8811 25.7707 51.7104 25.744 51.5611 25.712V23.824C51.6784 23.8453 51.8171 23.8667 51.9771 23.888C52.1478 23.9093 52.3238 23.92 52.5051 23.92C52.8358 23.92 53.1184 23.8507 53.3531 23.712C53.5984 23.5733 53.8011 23.3813 53.9611 23.136C54.1211 22.9013 54.2491 22.6453 54.3451 22.368L54.4891 21.936L51.0171 13.264ZM63.7585 12.672C63.7585 13.0027 63.7478 13.328 63.7265 13.648C63.7051 13.968 63.6838 14.2187 63.6625 14.4H63.7585C63.9931 14.0373 64.3078 13.7333 64.7025 13.488C65.0971 13.232 65.6091 13.104 66.2385 13.104C67.2198 13.104 68.0145 13.488 68.6225 14.256C69.2305 15.0133 69.5345 16.1333 69.5345 17.616C69.5345 18.608 69.3905 19.4453 69.1025 20.128C68.8251 20.8 68.4358 21.3067 67.9345 21.648C67.4331 21.9893 66.8465 22.16 66.1745 22.16C65.5345 22.16 65.0278 22.048 64.6545 21.824C64.2918 21.5893 63.9931 21.328 63.7585 21.04H63.5985L63.1985 22H61.3745V9.84H63.7585V12.672ZM65.4705 15.008C65.0545 15.008 64.7238 15.0933 64.4785 15.264C64.2331 15.4347 64.0518 15.696 63.9345 16.048C63.8278 16.3893 63.7691 16.8213 63.7585 17.344V17.6C63.7585 18.4427 63.8811 19.0933 64.1265 19.552C64.3825 20 64.8411 20.224 65.5025 20.224C65.9931 20.224 66.3825 20 66.6705 19.552C66.9585 19.0933 67.1025 18.4373 67.1025 17.584C67.1025 16.7307 66.9531 16.0907 66.6545 15.664C66.3665 15.2267 65.9718 15.008 65.4705 15.008ZM75.0995 13.104C75.9101 13.104 76.6035 13.2587 77.1795 13.568C77.7661 13.8773 78.2195 14.3253 78.5395 14.912C78.8595 15.4987 79.0195 16.2187 79.0195 17.072V18.224H73.3875C73.4088 18.896 73.6061 19.424 73.9795 19.808C74.3635 20.192 74.8915 20.384 75.5635 20.384C76.1288 20.384 76.6408 20.3307 77.0995 20.224C77.5581 20.1067 78.0328 19.9307 78.5235 19.696V21.536C78.0968 21.7493 77.6435 21.904 77.1635 22C76.6941 22.1067 76.1235 22.16 75.4515 22.16C74.5768 22.16 73.8035 22 73.1315 21.68C72.4595 21.3493 71.9315 20.8533 71.5475 20.192C71.1635 19.5307 70.9715 18.6987 70.9715 17.696C70.9715 16.672 71.1421 15.824 71.4835 15.152C71.8355 14.4693 72.3208 13.9573 72.9395 13.616C73.5581 13.2747 74.2781 13.104 75.0995 13.104ZM75.1155 14.8C74.6568 14.8 74.2728 14.9493 73.9635 15.248C73.6648 15.5467 73.4888 16.0107 73.4355 16.64H76.7795C76.7795 16.288 76.7155 15.9733 76.5875 15.696C76.4701 15.4187 76.2888 15.2 76.0435 15.04C75.7981 14.88 75.4888 14.8 75.1155 14.8ZM85.8326 13.104C85.9499 13.104 86.0886 13.1093 86.2486 13.12C86.4086 13.1307 86.5366 13.1467 86.6326 13.168L86.4566 15.408C86.3819 15.3867 86.2699 15.3707 86.1206 15.36C85.9819 15.3387 85.8593 15.328 85.7526 15.328C85.4433 15.328 85.1446 15.3707 84.8566 15.456C84.5686 15.5307 84.3073 15.6533 84.0726 15.824C83.8486 15.9947 83.6673 16.224 83.5286 16.512C83.4006 16.7893 83.3366 17.136 83.3366 17.552V22H80.9526V13.264H82.7606L83.1126 14.736H83.2246C83.3953 14.4373 83.6086 14.1653 83.8646 13.92C84.1206 13.6747 84.4139 13.4773 84.7446 13.328C85.0859 13.1787 85.4486 13.104 85.8326 13.104ZM50.3943 35.944C50.3516 35.7627 50.2876 35.496 50.2023 35.144C50.1276 34.7813 50.0423 34.3973 49.9463 33.992C49.8503 33.576 49.7596 33.1973 49.6743 32.856C49.5889 32.504 49.5303 32.248 49.4983 32.088H49.4343C49.4023 32.248 49.3436 32.504 49.2583 32.856C49.1836 33.1973 49.0983 33.576 49.0023 33.992C48.9063 34.3973 48.8156 34.7813 48.7303 35.144C48.6449 35.5067 48.5809 35.784 48.5383 35.976L47.8343 39H45.2743L42.7943 30.264H45.1623L46.1703 34.136C46.2449 34.4027 46.3089 34.7227 46.3623 35.096C46.4263 35.4693 46.4849 35.832 46.5383 36.184C46.5916 36.5253 46.6289 36.7973 46.6503 37H46.7143C46.7249 36.8507 46.7463 36.6533 46.7783 36.408C46.8103 36.152 46.8476 35.8907 46.8903 35.624C46.9436 35.3573 46.9863 35.1173 47.0183 34.904C47.0609 34.68 47.0929 34.5307 47.1143 34.456L48.1863 30.264H50.8103L51.8343 34.456C51.8769 34.6053 51.9249 34.8453 51.9783 35.176C52.0423 35.5067 52.0956 35.8427 52.1383 36.184C52.1916 36.5253 52.2183 36.7973 52.2183 37H52.2823C52.3036 36.8187 52.3409 36.5573 52.3943 36.216C52.4476 35.864 52.5063 35.496 52.5703 35.112C52.6449 34.728 52.7196 34.4027 52.7943 34.136L53.8343 30.264H56.1703L53.6583 39H51.0663L50.3943 35.944ZM61.1854 30.104C61.9961 30.104 62.6894 30.2587 63.2654 30.568C63.8521 30.8773 64.3054 31.3253 64.6254 31.912C64.9454 32.4987 65.1054 33.2187 65.1054 34.072V35.224H59.4734C59.4947 35.896 59.6921 36.424 60.0654 36.808C60.4494 37.192 60.9774 37.384 61.6494 37.384C62.2147 37.384 62.7267 37.3307 63.1854 37.224C63.6441 37.1067 64.1187 36.9307 64.6094 36.696V38.536C64.1827 38.7493 63.7294 38.904 63.2494 39C62.7801 39.1067 62.2094 39.16 61.5374 39.16C60.6627 39.16 59.8894 39 59.2174 38.68C58.5454 38.3493 58.0174 37.8533 57.6334 37.192C57.2494 36.5307 57.0574 35.6987 57.0574 34.696C57.0574 33.672 57.2281 32.824 57.5694 32.152C57.9214 31.4693 58.4067 30.9573 59.0254 30.616C59.6441 30.2747 60.3641 30.104 61.1854 30.104ZM61.2014 31.8C60.7427 31.8 60.3587 31.9493 60.0494 32.248C59.7507 32.5467 59.5747 33.0107 59.5214 33.64H62.8654C62.8654 33.288 62.8014 32.9733 62.6734 32.696C62.5561 32.4187 62.3747 32.2 62.1294 32.04C61.8841 31.88 61.5747 31.8 61.2014 31.8ZM70.6385 30.104C71.4492 30.104 72.1425 30.2587 72.7185 30.568C73.3052 30.8773 73.7585 31.3253 74.0785 31.912C74.3985 32.4987 74.5585 33.2187 74.5585 34.072V35.224H68.9265C68.9479 35.896 69.1452 36.424 69.5185 36.808C69.9025 37.192 70.4305 37.384 71.1025 37.384C71.6679 37.384 72.1799 37.3307 72.6385 37.224C73.0972 37.1067 73.5719 36.9307 74.0625 36.696V38.536C73.6359 38.7493 73.1825 38.904 72.7025 39C72.2332 39.1067 71.6625 39.16 70.9905 39.16C70.1159 39.16 69.3425 39 68.6705 38.68C67.9985 38.3493 67.4705 37.8533 67.0865 37.192C66.7025 36.5307 66.5105 35.6987 66.5105 34.696C66.5105 33.672 66.6812 32.824 67.0225 32.152C67.3745 31.4693 67.8599 30.9573 68.4785 30.616C69.0972 30.2747 69.8172 30.104 70.6385 30.104ZM70.6545 31.8C70.1959 31.8 69.8119 31.9493 69.5025 32.248C69.2039 32.5467 69.0279 33.0107 68.9745 33.64H72.3185C72.3185 33.288 72.2545 32.9733 72.1265 32.696C72.0092 32.4187 71.8279 32.2 71.5825 32.04C71.3372 31.88 71.0279 31.8 70.6545 31.8ZM78.8757 32.28C78.8757 32.6107 78.8597 32.9413 78.8277 33.272C78.8063 33.592 78.7797 33.9173 78.7477 34.248H78.7797C78.8863 34.0987 78.993 33.9493 79.0997 33.8C79.217 33.6507 79.3343 33.5013 79.4517 33.352C79.569 33.2027 79.6917 33.0587 79.8197 32.92L82.2677 30.264H84.9557L81.4837 34.056L85.1637 39H82.4117L79.8997 35.464L78.8757 36.28V39H76.4917V26.84H78.8757V32.28Z" fill="white"/>
<defs>
<filter id="filter0_d_365_10662" x="0.613281" y="0" width="109.387" height="53.4062" filterUnits="userSpaceOnUse" color-interpolation-filters="sRGB">
<feFlood flood-opacity="0" result="BackgroundImageFix"/>
<feColorMatrix in="SourceAlpha" type="matrix" values="0 0 0 0 0 0 0 0 0 0 0 0 0 0 0 0 0 0 127 0" result="hardAlpha"/>
<feOffset dx="-1" dy="2"/>
<feGaussianBlur stdDeviation="2"/>
<feComposite in2="hardAlpha" operator="out"/>
<feColorMatrix type="matrix" values="0 0 0 0 0 0 0 0 0 0 0 0 0 0 0 0 0 0 0.25 0"/>
<feBlend mode="normal" in2="BackgroundImageFix" result="effect1_dropShadow_365_10662"/>
<feBlend mode="normal" in="SourceGraphic" in2="effect1_dropShadow_365_10662" result="shape"/>
</filter>
</defs>
</svg>
