<svg width="30" height="30" viewBox="0 0 30 30" fill="none" xmlns="http://www.w3.org/2000/svg">
<path fill-rule="evenodd" clip-rule="evenodd" d="M25 2C25 2.82843 24.3284 3.5 23.5 3.5H6.5C5.67157 3.5 5 2.82843 5 2C5 1.17157 5.67157 0.5 6.5 0.5H23.5C24.3284 0.5 25 1.17157 25 2Z" fill="#BC0D2A"/>
<path fill-rule="evenodd" clip-rule="evenodd" d="M30 15C30 15.8284 29.3284 16.5 28.5 16.5H1.5C0.671573 16.5 0 15.8284 0 15C0 14.1716 0.671573 13.5 1.5 13.5H28.5C29.3284 13.5 30 14.1716 30 15Z" fill="#BC0D2A"/>
<path fill-rule="evenodd" clip-rule="evenodd" d="M25 28C25 28.8284 24.3284 29.5 23.5 29.5H6.5C5.67157 29.5 5 28.8284 5 28C5 27.1716 5.67157 26.5 6.5 26.5H23.5C24.3284 26.5 25 27.1716 25 28Z" fill="#BC0D2A"/>
</svg>
