<svg width="28" height="24" viewBox="0 0 28 24" fill="none" xmlns="http://www.w3.org/2000/svg">
<path d="M19.7548 0C17.3842 0 15.109 1.10354 13.624 2.84741C12.139 1.10354 9.86376 0 7.49319 0C3.297 0 0 3.297 0 7.49319C0 12.6431 4.63215 16.8392 11.6485 23.2153C12.7693 24.2279 14.4824 24.2185 15.5995 23.2016C22.6158 16.8392 27.248 12.6431 27.248 7.49319C27.248 3.297 23.951 0 19.7548 0ZM13.7602 21.1853L13.624 21.3215L13.4877 21.1853C7.00272 15.3133 2.7248 11.4305 2.7248 7.49319C2.7248 4.76839 4.76839 2.7248 7.49319 2.7248C9.1493 2.7248 10.7715 3.56517 11.7365 4.83718C12.199 5.44672 12.8613 5.94005 13.6264 5.94005C14.3959 5.94005 15.0608 5.44098 15.5254 4.82761C16.4846 3.56095 18.1028 2.7248 19.7548 2.7248C22.4796 2.7248 24.5232 4.76839 24.5232 7.49319C24.5232 11.4305 20.2452 15.3133 13.7602 21.1853Z" fill="#BC0D2A"/>
</svg>
