<svg width="110" height="54" viewBox="0 0 110 54" fill="none" xmlns="http://www.w3.org/2000/svg">
<g filter="url(#filter0_d_365_10659)">
<path d="M106.5 47.4062L7.11691 47.4062C5.44768 47.4062 4.51295 45.4821 5.54476 44.17L19.8802 25.9398C20.4507 25.2144 20.4507 24.1927 19.8802 23.4673L5.54476 5.23711C4.51295 3.92498 5.44767 2.00084 7.11691 2.00084L106.5 2.00084L106.5 47.4062Z" fill="#5B5B5B"/>
</g>
<path d="M46.518 12.432C46.0593 12.432 45.6486 12.5227 45.286 12.704C44.934 12.8853 44.6353 13.1467 44.39 13.488C44.1446 13.8187 43.958 14.224 43.83 14.704C43.7126 15.184 43.654 15.7227 43.654 16.32C43.654 17.1307 43.75 17.824 43.942 18.4C44.1446 18.9653 44.4593 19.3973 44.886 19.696C45.3126 19.9947 45.8566 20.144 46.518 20.144C46.9873 20.144 47.4513 20.0907 47.91 19.984C48.3793 19.8773 48.886 19.728 49.43 19.536V21.568C48.9286 21.7707 48.4326 21.92 47.942 22.016C47.4513 22.112 46.902 22.16 46.294 22.16C45.1206 22.16 44.15 21.92 43.382 21.44C42.6246 20.9493 42.0646 20.2667 41.702 19.392C41.3393 18.5067 41.158 17.4773 41.158 16.304C41.158 15.44 41.2753 14.6507 41.51 13.936C41.7446 13.2107 42.086 12.5867 42.534 12.064C42.9926 11.5413 43.5526 11.136 44.214 10.848C44.886 10.56 45.654 10.416 46.518 10.416C47.0833 10.416 47.6486 10.4907 48.214 10.64C48.79 10.7787 49.3393 10.9707 49.862 11.216L49.078 13.184C48.6513 12.9813 48.2193 12.8053 47.782 12.656C47.3553 12.5067 46.934 12.432 46.518 12.432ZM50.4175 13.264H53.0255L54.6735 18.176C54.7268 18.336 54.7695 18.496 54.8015 18.656C54.8441 18.816 54.8761 18.9813 54.8975 19.152C54.9295 19.3227 54.9508 19.504 54.9615 19.696H55.0095C55.0415 19.4187 55.0841 19.1573 55.1375 18.912C55.2015 18.656 55.2708 18.4107 55.3455 18.176L56.9615 13.264H59.5215L55.8255 23.12C55.6015 23.7173 55.3081 24.2187 54.9455 24.624C54.5935 25.0293 54.1828 25.3333 53.7135 25.536C53.2441 25.7387 52.7321 25.84 52.1775 25.84C51.9108 25.84 51.6761 25.824 51.4735 25.792C51.2815 25.7707 51.1108 25.744 50.9615 25.712V23.824C51.0788 23.8453 51.2175 23.8667 51.3775 23.888C51.5481 23.9093 51.7241 23.92 51.9055 23.92C52.2361 23.92 52.5188 23.8507 52.7535 23.712C52.9988 23.5733 53.2015 23.3813 53.3615 23.136C53.5215 22.9013 53.6495 22.6453 53.7455 22.368L53.8895 21.936L50.4175 13.264ZM63.1589 12.672C63.1589 13.0027 63.1482 13.328 63.1269 13.648C63.1055 13.968 63.0842 14.2187 63.0629 14.4H63.1589C63.3935 14.0373 63.7082 13.7333 64.1029 13.488C64.4975 13.232 65.0095 13.104 65.6389 13.104C66.6202 13.104 67.4149 13.488 68.0229 14.256C68.6309 15.0133 68.9349 16.1333 68.9349 17.616C68.9349 18.608 68.7909 19.4453 68.5029 20.128C68.2255 20.8 67.8362 21.3067 67.3349 21.648C66.8335 21.9893 66.2469 22.16 65.5749 22.16C64.9349 22.16 64.4282 22.048 64.0549 21.824C63.6922 21.5893 63.3935 21.328 63.1589 21.04H62.9989L62.5989 22H60.7749V9.84H63.1589V12.672ZM64.8709 15.008C64.4549 15.008 64.1242 15.0933 63.8789 15.264C63.6335 15.4347 63.4522 15.696 63.3349 16.048C63.2282 16.3893 63.1695 16.8213 63.1589 17.344V17.6C63.1589 18.4427 63.2815 19.0933 63.5269 19.552C63.7829 20 64.2415 20.224 64.9029 20.224C65.3935 20.224 65.7829 20 66.0709 19.552C66.3589 19.0933 66.5029 18.4373 66.5029 17.584C66.5029 16.7307 66.3535 16.0907 66.0549 15.664C65.7669 15.2267 65.3722 15.008 64.8709 15.008ZM74.4999 13.104C75.3105 13.104 76.0039 13.2587 76.5799 13.568C77.1665 13.8773 77.6199 14.3253 77.9399 14.912C78.2599 15.4987 78.4199 16.2187 78.4199 17.072V18.224H72.7879C72.8092 18.896 73.0065 19.424 73.3799 19.808C73.7639 20.192 74.2919 20.384 74.9639 20.384C75.5292 20.384 76.0412 20.3307 76.4999 20.224C76.9585 20.1067 77.4332 19.9307 77.9239 19.696V21.536C77.4972 21.7493 77.0439 21.904 76.5639 22C76.0945 22.1067 75.5239 22.16 74.8519 22.16C73.9772 22.16 73.2039 22 72.5319 21.68C71.8599 21.3493 71.3319 20.8533 70.9479 20.192C70.5639 19.5307 70.3719 18.6987 70.3719 17.696C70.3719 16.672 70.5425 15.824 70.8839 15.152C71.2359 14.4693 71.7212 13.9573 72.3399 13.616C72.9585 13.2747 73.6785 13.104 74.4999 13.104ZM74.5159 14.8C74.0572 14.8 73.6732 14.9493 73.3639 15.248C73.0652 15.5467 72.8892 16.0107 72.8359 16.64H76.1799C76.1799 16.288 76.1159 15.9733 75.9879 15.696C75.8705 15.4187 75.6892 15.2 75.4439 15.04C75.1985 14.88 74.8892 14.8 74.5159 14.8ZM85.233 13.104C85.3503 13.104 85.489 13.1093 85.649 13.12C85.809 13.1307 85.937 13.1467 86.033 13.168L85.857 15.408C85.7823 15.3867 85.6703 15.3707 85.521 15.36C85.3823 15.3387 85.2596 15.328 85.153 15.328C84.8436 15.328 84.545 15.3707 84.257 15.456C83.969 15.5307 83.7076 15.6533 83.473 15.824C83.249 15.9947 83.0676 16.224 82.929 16.512C82.801 16.7893 82.737 17.136 82.737 17.552V22H80.353V13.264H82.161L82.513 14.736H82.625C82.7956 14.4373 83.009 14.1653 83.265 13.92C83.521 13.6747 83.8143 13.4773 84.145 13.328C84.4863 13.1787 84.849 13.104 85.233 13.104ZM49.7947 35.944C49.752 35.7627 49.688 35.496 49.6027 35.144C49.528 34.7813 49.4427 34.3973 49.3467 33.992C49.2507 33.576 49.16 33.1973 49.0747 32.856C48.9893 32.504 48.9307 32.248 48.8987 32.088H48.8347C48.8027 32.248 48.744 32.504 48.6587 32.856C48.584 33.1973 48.4987 33.576 48.4027 33.992C48.3067 34.3973 48.216 34.7813 48.1307 35.144C48.0453 35.5067 47.9813 35.784 47.9387 35.976L47.2347 39H44.6747L42.1947 30.264H44.5627L45.5707 34.136C45.6453 34.4027 45.7093 34.7227 45.7627 35.096C45.8267 35.4693 45.8853 35.832 45.9387 36.184C45.992 36.5253 46.0293 36.7973 46.0507 37H46.1147C46.1253 36.8507 46.1467 36.6533 46.1787 36.408C46.2107 36.152 46.248 35.8907 46.2907 35.624C46.344 35.3573 46.3867 35.1173 46.4187 34.904C46.4613 34.68 46.4933 34.5307 46.5147 34.456L47.5867 30.264H50.2107L51.2347 34.456C51.2773 34.6053 51.3253 34.8453 51.3787 35.176C51.4427 35.5067 51.496 35.8427 51.5387 36.184C51.592 36.5253 51.6187 36.7973 51.6187 37H51.6827C51.704 36.8187 51.7413 36.5573 51.7947 36.216C51.848 35.864 51.9067 35.496 51.9707 35.112C52.0453 34.728 52.12 34.4027 52.1947 34.136L53.2347 30.264H55.5707L53.0587 39H50.4667L49.7947 35.944ZM60.5858 30.104C61.3965 30.104 62.0898 30.2587 62.6658 30.568C63.2525 30.8773 63.7058 31.3253 64.0258 31.912C64.3458 32.4987 64.5058 33.2187 64.5058 34.072V35.224H58.8738C58.8951 35.896 59.0925 36.424 59.4658 36.808C59.8498 37.192 60.3778 37.384 61.0498 37.384C61.6151 37.384 62.1271 37.3307 62.5858 37.224C63.0445 37.1067 63.5191 36.9307 64.0098 36.696V38.536C63.5831 38.7493 63.1298 38.904 62.6498 39C62.1805 39.1067 61.6098 39.16 60.9378 39.16C60.0631 39.16 59.2898 39 58.6178 38.68C57.9458 38.3493 57.4178 37.8533 57.0338 37.192C56.6498 36.5307 56.4578 35.6987 56.4578 34.696C56.4578 33.672 56.6285 32.824 56.9698 32.152C57.3218 31.4693 57.8071 30.9573 58.4258 30.616C59.0445 30.2747 59.7645 30.104 60.5858 30.104ZM60.6018 31.8C60.1431 31.8 59.7591 31.9493 59.4498 32.248C59.1511 32.5467 58.9751 33.0107 58.9218 33.64H62.2658C62.2658 33.288 62.2018 32.9733 62.0738 32.696C61.9565 32.4187 61.7751 32.2 61.5298 32.04C61.2845 31.88 60.9751 31.8 60.6018 31.8ZM70.0389 30.104C70.8496 30.104 71.5429 30.2587 72.1189 30.568C72.7056 30.8773 73.1589 31.3253 73.4789 31.912C73.7989 32.4987 73.9589 33.2187 73.9589 34.072V35.224H68.3269C68.3483 35.896 68.5456 36.424 68.9189 36.808C69.3029 37.192 69.8309 37.384 70.5029 37.384C71.0683 37.384 71.5803 37.3307 72.0389 37.224C72.4976 37.1067 72.9723 36.9307 73.4629 36.696V38.536C73.0363 38.7493 72.5829 38.904 72.1029 39C71.6336 39.1067 71.0629 39.16 70.3909 39.16C69.5163 39.16 68.7429 39 68.0709 38.68C67.3989 38.3493 66.8709 37.8533 66.4869 37.192C66.1029 36.5307 65.9109 35.6987 65.9109 34.696C65.9109 33.672 66.0816 32.824 66.4229 32.152C66.7749 31.4693 67.2603 30.9573 67.8789 30.616C68.4976 30.2747 69.2176 30.104 70.0389 30.104ZM70.0549 31.8C69.5963 31.8 69.2123 31.9493 68.9029 32.248C68.6043 32.5467 68.4283 33.0107 68.3749 33.64H71.7189C71.7189 33.288 71.6549 32.9733 71.5269 32.696C71.4096 32.4187 71.2283 32.2 70.9829 32.04C70.7376 31.88 70.4283 31.8 70.0549 31.8ZM78.276 32.28C78.276 32.6107 78.26 32.9413 78.228 33.272C78.2067 33.592 78.18 33.9173 78.148 34.248H78.18C78.2867 34.0987 78.3934 33.9493 78.5 33.8C78.6174 33.6507 78.7347 33.5013 78.852 33.352C78.9694 33.2027 79.092 33.0587 79.22 32.92L81.668 30.264H84.356L80.884 34.056L84.564 39H81.812L79.3 35.464L78.276 36.28V39H75.892V26.84H78.276V32.28Z" fill="white"/>
<defs>
<filter id="filter0_d_365_10659" x="0.113281" y="0" width="109.387" height="53.4062" filterUnits="userSpaceOnUse" color-interpolation-filters="sRGB">
<feFlood flood-opacity="0" result="BackgroundImageFix"/>
<feColorMatrix in="SourceAlpha" type="matrix" values="0 0 0 0 0 0 0 0 0 0 0 0 0 0 0 0 0 0 127 0" result="hardAlpha"/>
<feOffset dx="-1" dy="2"/>
<feGaussianBlur stdDeviation="2"/>
<feComposite in2="hardAlpha" operator="out"/>
<feColorMatrix type="matrix" values="0 0 0 0 0 0 0 0 0 0 0 0 0 0 0 0 0 0 0.25 0"/>
<feBlend mode="normal" in2="BackgroundImageFix" result="effect1_dropShadow_365_10659"/>
<feBlend mode="normal" in="SourceGraphic" in2="effect1_dropShadow_365_10659" result="shape"/>
</filter>
</defs>
</svg>
