<svg width="110" height="54" viewBox="0 0 110 54" fill="none" xmlns="http://www.w3.org/2000/svg">
<g filter="url(#filter0_d_365_10663)">
<path d="M107 47.4062L7.61691 47.4062C5.94768 47.4062 5.01295 45.4821 6.04476 44.17L20.3802 25.9398C20.9507 25.2144 20.9507 24.1927 20.3802 23.4673L6.04476 5.23711C5.01295 3.92498 5.94767 2.00084 7.61691 2.00084L107 2.00084L107 47.4062Z" fill="#00B224"/>
</g>
<path d="M46.7177 12.432C46.259 12.432 45.8484 12.5227 45.4857 12.704C45.1337 12.8853 44.835 13.1467 44.5897 13.488C44.3444 13.8187 44.1577 14.224 44.0297 14.704C43.9124 15.184 43.8537 15.7227 43.8537 16.32C43.8537 17.1307 43.9497 17.824 44.1417 18.4C44.3444 18.9653 44.659 19.3973 45.0857 19.696C45.5124 19.9947 46.0564 20.144 46.7177 20.144C47.187 20.144 47.651 20.0907 48.1097 19.984C48.579 19.8773 49.0857 19.728 49.6297 19.536V21.568C49.1284 21.7707 48.6324 21.92 48.1417 22.016C47.651 22.112 47.1017 22.16 46.4937 22.16C45.3204 22.16 44.3497 21.92 43.5817 21.44C42.8244 20.9493 42.2644 20.2667 41.9017 19.392C41.539 18.5067 41.3577 17.4773 41.3577 16.304C41.3577 15.44 41.475 14.6507 41.7097 13.936C41.9444 13.2107 42.2857 12.5867 42.7337 12.064C43.1924 11.5413 43.7524 11.136 44.4137 10.848C45.0857 10.56 45.8537 10.416 46.7177 10.416C47.283 10.416 47.8484 10.4907 48.4137 10.64C48.9897 10.7787 49.539 10.9707 50.0617 11.216L49.2777 13.184C48.851 12.9813 48.419 12.8053 47.9817 12.656C47.555 12.5067 47.1337 12.432 46.7177 12.432ZM50.6172 13.264H53.2252L54.8732 18.176C54.9265 18.336 54.9692 18.496 55.0012 18.656C55.0439 18.816 55.0759 18.9813 55.0972 19.152C55.1292 19.3227 55.1505 19.504 55.1612 19.696H55.2092C55.2412 19.4187 55.2839 19.1573 55.3372 18.912C55.4012 18.656 55.4705 18.4107 55.5452 18.176L57.1612 13.264H59.7212L56.0252 23.12C55.8012 23.7173 55.5079 24.2187 55.1452 24.624C54.7932 25.0293 54.3825 25.3333 53.9132 25.536C53.4439 25.7387 52.9319 25.84 52.3772 25.84C52.1105 25.84 51.8759 25.824 51.6732 25.792C51.4812 25.7707 51.3105 25.744 51.1612 25.712V23.824C51.2785 23.8453 51.4172 23.8667 51.5772 23.888C51.7479 23.9093 51.9239 23.92 52.1052 23.92C52.4359 23.92 52.7185 23.8507 52.9532 23.712C53.1985 23.5733 53.4012 23.3813 53.5612 23.136C53.7212 22.9013 53.8492 22.6453 53.9452 22.368L54.0892 21.936L50.6172 13.264ZM63.3586 12.672C63.3586 13.0027 63.3479 13.328 63.3266 13.648C63.3052 13.968 63.2839 14.2187 63.2626 14.4H63.3586C63.5932 14.0373 63.9079 13.7333 64.3026 13.488C64.6972 13.232 65.2092 13.104 65.8386 13.104C66.8199 13.104 67.6146 13.488 68.2226 14.256C68.8306 15.0133 69.1346 16.1333 69.1346 17.616C69.1346 18.608 68.9906 19.4453 68.7026 20.128C68.4252 20.8 68.0359 21.3067 67.5346 21.648C67.0332 21.9893 66.4466 22.16 65.7746 22.16C65.1346 22.16 64.6279 22.048 64.2546 21.824C63.8919 21.5893 63.5932 21.328 63.3586 21.04H63.1986L62.7986 22H60.9746V9.84H63.3586V12.672ZM65.0706 15.008C64.6546 15.008 64.3239 15.0933 64.0786 15.264C63.8332 15.4347 63.6519 15.696 63.5346 16.048C63.4279 16.3893 63.3692 16.8213 63.3586 17.344V17.6C63.3586 18.4427 63.4812 19.0933 63.7266 19.552C63.9826 20 64.4412 20.224 65.1026 20.224C65.5932 20.224 65.9826 20 66.2706 19.552C66.5586 19.0933 66.7026 18.4373 66.7026 17.584C66.7026 16.7307 66.5532 16.0907 66.2546 15.664C65.9666 15.2267 65.5719 15.008 65.0706 15.008ZM74.6996 13.104C75.5102 13.104 76.2036 13.2587 76.7796 13.568C77.3662 13.8773 77.8196 14.3253 78.1396 14.912C78.4596 15.4987 78.6196 16.2187 78.6196 17.072V18.224H72.9876C73.0089 18.896 73.2062 19.424 73.5796 19.808C73.9636 20.192 74.4916 20.384 75.1636 20.384C75.7289 20.384 76.2409 20.3307 76.6996 20.224C77.1582 20.1067 77.6329 19.9307 78.1236 19.696V21.536C77.6969 21.7493 77.2436 21.904 76.7636 22C76.2942 22.1067 75.7236 22.16 75.0516 22.16C74.1769 22.16 73.4036 22 72.7316 21.68C72.0596 21.3493 71.5316 20.8533 71.1476 20.192C70.7636 19.5307 70.5716 18.6987 70.5716 17.696C70.5716 16.672 70.7422 15.824 71.0836 15.152C71.4356 14.4693 71.9209 13.9573 72.5396 13.616C73.1582 13.2747 73.8782 13.104 74.6996 13.104ZM74.7156 14.8C74.2569 14.8 73.8729 14.9493 73.5636 15.248C73.2649 15.5467 73.0889 16.0107 73.0356 16.64H76.3796C76.3796 16.288 76.3156 15.9733 76.1876 15.696C76.0702 15.4187 75.8889 15.2 75.6436 15.04C75.3982 14.88 75.0889 14.8 74.7156 14.8ZM85.4327 13.104C85.55 13.104 85.6887 13.1093 85.8487 13.12C86.0087 13.1307 86.1367 13.1467 86.2327 13.168L86.0567 15.408C85.982 15.3867 85.87 15.3707 85.7207 15.36C85.582 15.3387 85.4594 15.328 85.3527 15.328C85.0434 15.328 84.7447 15.3707 84.4567 15.456C84.1687 15.5307 83.9074 15.6533 83.6727 15.824C83.4487 15.9947 83.2674 16.224 83.1287 16.512C83.0007 16.7893 82.9367 17.136 82.9367 17.552V22H80.5527V13.264H82.3607L82.7127 14.736H82.8247C82.9954 14.4373 83.2087 14.1653 83.4647 13.92C83.7207 13.6747 84.014 13.4773 84.3447 13.328C84.686 13.1787 85.0487 13.104 85.4327 13.104ZM49.9944 35.944C49.9517 35.7627 49.8877 35.496 49.8024 35.144C49.7277 34.7813 49.6424 34.3973 49.5464 33.992C49.4504 33.576 49.3597 33.1973 49.2744 32.856C49.189 32.504 49.1304 32.248 49.0984 32.088H49.0344C49.0024 32.248 48.9437 32.504 48.8584 32.856C48.7837 33.1973 48.6984 33.576 48.6024 33.992C48.5064 34.3973 48.4157 34.7813 48.3304 35.144C48.245 35.5067 48.181 35.784 48.1384 35.976L47.4344 39H44.8744L42.3944 30.264H44.7624L45.7704 34.136C45.845 34.4027 45.909 34.7227 45.9624 35.096C46.0264 35.4693 46.085 35.832 46.1384 36.184C46.1917 36.5253 46.229 36.7973 46.2504 37H46.3144C46.325 36.8507 46.3464 36.6533 46.3784 36.408C46.4104 36.152 46.4477 35.8907 46.4904 35.624C46.5437 35.3573 46.5864 35.1173 46.6184 34.904C46.661 34.68 46.693 34.5307 46.7144 34.456L47.7864 30.264H50.4104L51.4344 34.456C51.477 34.6053 51.525 34.8453 51.5784 35.176C51.6424 35.5067 51.6957 35.8427 51.7384 36.184C51.7917 36.5253 51.8184 36.7973 51.8184 37H51.8824C51.9037 36.8187 51.941 36.5573 51.9944 36.216C52.0477 35.864 52.1064 35.496 52.1704 35.112C52.245 34.728 52.3197 34.4027 52.3944 34.136L53.4344 30.264H55.7704L53.2584 39H50.6664L49.9944 35.944ZM60.7855 30.104C61.5962 30.104 62.2895 30.2587 62.8655 30.568C63.4522 30.8773 63.9055 31.3253 64.2255 31.912C64.5455 32.4987 64.7055 33.2187 64.7055 34.072V35.224H59.0735C59.0948 35.896 59.2922 36.424 59.6655 36.808C60.0495 37.192 60.5775 37.384 61.2495 37.384C61.8148 37.384 62.3268 37.3307 62.7855 37.224C63.2442 37.1067 63.7188 36.9307 64.2095 36.696V38.536C63.7828 38.7493 63.3295 38.904 62.8495 39C62.3802 39.1067 61.8095 39.16 61.1375 39.16C60.2628 39.16 59.4895 39 58.8175 38.68C58.1455 38.3493 57.6175 37.8533 57.2335 37.192C56.8495 36.5307 56.6575 35.6987 56.6575 34.696C56.6575 33.672 56.8282 32.824 57.1695 32.152C57.5215 31.4693 58.0068 30.9573 58.6255 30.616C59.2442 30.2747 59.9642 30.104 60.7855 30.104ZM60.8015 31.8C60.3428 31.8 59.9588 31.9493 59.6495 32.248C59.3508 32.5467 59.1748 33.0107 59.1215 33.64H62.4655C62.4655 33.288 62.4015 32.9733 62.2735 32.696C62.1562 32.4187 61.9748 32.2 61.7295 32.04C61.4842 31.88 61.1748 31.8 60.8015 31.8ZM70.2386 30.104C71.0493 30.104 71.7426 30.2587 72.3186 30.568C72.9053 30.8773 73.3586 31.3253 73.6786 31.912C73.9986 32.4987 74.1586 33.2187 74.1586 34.072V35.224H68.5266C68.548 35.896 68.7453 36.424 69.1186 36.808C69.5026 37.192 70.0306 37.384 70.7026 37.384C71.268 37.384 71.78 37.3307 72.2386 37.224C72.6973 37.1067 73.172 36.9307 73.6626 36.696V38.536C73.236 38.7493 72.7826 38.904 72.3026 39C71.8333 39.1067 71.2626 39.16 70.5906 39.16C69.716 39.16 68.9426 39 68.2706 38.68C67.5986 38.3493 67.0706 37.8533 66.6866 37.192C66.3026 36.5307 66.1106 35.6987 66.1106 34.696C66.1106 33.672 66.2813 32.824 66.6226 32.152C66.9746 31.4693 67.46 30.9573 68.0786 30.616C68.6973 30.2747 69.4173 30.104 70.2386 30.104ZM70.2546 31.8C69.796 31.8 69.412 31.9493 69.1026 32.248C68.804 32.5467 68.628 33.0107 68.5746 33.64H71.9186C71.9186 33.288 71.8546 32.9733 71.7266 32.696C71.6093 32.4187 71.428 32.2 71.1826 32.04C70.9373 31.88 70.628 31.8 70.2546 31.8ZM78.4758 32.28C78.4758 32.6107 78.4598 32.9413 78.4278 33.272C78.4064 33.592 78.3798 33.9173 78.3478 34.248H78.3798C78.4864 34.0987 78.5931 33.9493 78.6998 33.8C78.8171 33.6507 78.9344 33.5013 79.0518 33.352C79.1691 33.2027 79.2918 33.0587 79.4198 32.92L81.8678 30.264H84.5558L81.0838 34.056L84.7638 39H82.0118L79.4998 35.464L78.4758 36.28V39H76.0918V26.84H78.4758V32.28Z" fill="white"/>
<defs>
<filter id="filter0_d_365_10663" x="0.613281" y="0" width="109.387" height="53.4062" filterUnits="userSpaceOnUse" color-interpolation-filters="sRGB">
<feFlood flood-opacity="0" result="BackgroundImageFix"/>
<feColorMatrix in="SourceAlpha" type="matrix" values="0 0 0 0 0 0 0 0 0 0 0 0 0 0 0 0 0 0 127 0" result="hardAlpha"/>
<feOffset dx="-1" dy="2"/>
<feGaussianBlur stdDeviation="2"/>
<feComposite in2="hardAlpha" operator="out"/>
<feColorMatrix type="matrix" values="0 0 0 0 0 0 0 0 0 0 0 0 0 0 0 0 0 0 0.25 0"/>
<feBlend mode="normal" in2="BackgroundImageFix" result="effect1_dropShadow_365_10663"/>
<feBlend mode="normal" in="SourceGraphic" in2="effect1_dropShadow_365_10663" result="shape"/>
</filter>
</defs>
</svg>
