<svg width="46" height="46" viewBox="0 0 46 46" fill="none" xmlns="http://www.w3.org/2000/svg">
<path d="M46 23C46 35.7025 35.7025 46 23 46C10.2975 46 0 35.7025 0 23C0 10.2975 10.2975 0 23 0C35.7025 0 46 10.2975 46 23Z" fill="#BC0D2A"/>
<path d="M36.9414 14.4908C36.9414 15.0141 36.667 15.4991 36.2185 15.7686L24.366 22.8909C23.815 23.222 23.1264 23.222 22.5754 22.8909L10.7229 15.7686C10.2744 15.4991 10 15.0141 10 14.4908C10 13.6674 10.6674 13 11.4908 13H35.4506C36.274 13 36.9414 13.6674 36.9414 14.4908Z" fill="white"/>
<path d="M24.366 24.5568C23.8151 24.8878 23.1264 24.8878 22.5754 24.5568L11.5151 17.9104C10.8486 17.5099 10 17.99 10 18.7676L10 30.2618C10 31.2218 10.7782 32 11.7382 32H35.2033C36.1632 32 36.9414 31.2218 36.9414 30.2618L36.9414 18.7676C36.9414 17.99 36.0929 17.5099 35.4263 17.9104L24.366 24.5568Z" fill="white"/>
</svg>
