<svg width="110" height="54" viewBox="0 0 110 54" fill="none" xmlns="http://www.w3.org/2000/svg">
<g filter="url(#filter0_d_365_10661)">
<path d="M106.5 47.4062L7.11691 47.4062C5.44768 47.4062 4.51295 45.4821 5.54476 44.17L19.8802 25.9398C20.4507 25.2144 20.4507 24.1927 19.8802 23.4673L5.54476 5.23711C4.51295 3.92498 5.44767 2.00084 7.11691 2.00084L106.5 2.00084L106.5 47.4062Z" fill="#FF7301"/>
</g>
<path d="M47.0177 12.432C46.5591 12.432 46.1484 12.5227 45.7857 12.704C45.4337 12.8853 45.1351 13.1467 44.8897 13.488C44.6444 13.8187 44.4577 14.224 44.3297 14.704C44.2124 15.184 44.1537 15.7227 44.1537 16.32C44.1537 17.1307 44.2497 17.824 44.4417 18.4C44.6444 18.9653 44.9591 19.3973 45.3857 19.696C45.8124 19.9947 46.3564 20.144 47.0177 20.144C47.4871 20.144 47.9511 20.0907 48.4097 19.984C48.8791 19.8773 49.3857 19.728 49.9297 19.536V21.568C49.4284 21.7707 48.9324 21.92 48.4417 22.016C47.9511 22.112 47.4017 22.16 46.7937 22.16C45.6204 22.16 44.6497 21.92 43.8817 21.44C43.1244 20.9493 42.5644 20.2667 42.2017 19.392C41.8391 18.5067 41.6577 17.4773 41.6577 16.304C41.6577 15.44 41.7751 14.6507 42.0097 13.936C42.2444 13.2107 42.5857 12.5867 43.0337 12.064C43.4924 11.5413 44.0524 11.136 44.7137 10.848C45.3857 10.56 46.1537 10.416 47.0177 10.416C47.5831 10.416 48.1484 10.4907 48.7137 10.64C49.2897 10.7787 49.8391 10.9707 50.3617 11.216L49.5777 13.184C49.1511 12.9813 48.7191 12.8053 48.2817 12.656C47.8551 12.5067 47.4337 12.432 47.0177 12.432ZM50.9172 13.264H53.5252L55.1732 18.176C55.2266 18.336 55.2692 18.496 55.3012 18.656C55.3439 18.816 55.3759 18.9813 55.3972 19.152C55.4292 19.3227 55.4506 19.504 55.4612 19.696H55.5092C55.5412 19.4187 55.5839 19.1573 55.6372 18.912C55.7012 18.656 55.7706 18.4107 55.8452 18.176L57.4612 13.264H60.0212L56.3252 23.12C56.1012 23.7173 55.8079 24.2187 55.4452 24.624C55.0932 25.0293 54.6826 25.3333 54.2132 25.536C53.7439 25.7387 53.2319 25.84 52.6772 25.84C52.4106 25.84 52.1759 25.824 51.9732 25.792C51.7812 25.7707 51.6106 25.744 51.4612 25.712V23.824C51.5786 23.8453 51.7172 23.8667 51.8772 23.888C52.0479 23.9093 52.2239 23.92 52.4052 23.92C52.7359 23.92 53.0186 23.8507 53.2532 23.712C53.4986 23.5733 53.7012 23.3813 53.8612 23.136C54.0212 22.9013 54.1492 22.6453 54.2452 22.368L54.3892 21.936L50.9172 13.264ZM63.6586 12.672C63.6586 13.0027 63.6479 13.328 63.6266 13.648C63.6053 13.968 63.5839 14.2187 63.5626 14.4H63.6586C63.8933 14.0373 64.2079 13.7333 64.6026 13.488C64.9973 13.232 65.5093 13.104 66.1386 13.104C67.1199 13.104 67.9146 13.488 68.5226 14.256C69.1306 15.0133 69.4346 16.1333 69.4346 17.616C69.4346 18.608 69.2906 19.4453 69.0026 20.128C68.7253 20.8 68.3359 21.3067 67.8346 21.648C67.3333 21.9893 66.7466 22.16 66.0746 22.16C65.4346 22.16 64.9279 22.048 64.5546 21.824C64.1919 21.5893 63.8933 21.328 63.6586 21.04H63.4986L63.0986 22H61.2746V9.84H63.6586V12.672ZM65.3706 15.008C64.9546 15.008 64.6239 15.0933 64.3786 15.264C64.1333 15.4347 63.9519 15.696 63.8346 16.048C63.7279 16.3893 63.6693 16.8213 63.6586 17.344V17.6C63.6586 18.4427 63.7813 19.0933 64.0266 19.552C64.2826 20 64.7413 20.224 65.4026 20.224C65.8933 20.224 66.2826 20 66.5706 19.552C66.8586 19.0933 67.0026 18.4373 67.0026 17.584C67.0026 16.7307 66.8533 16.0907 66.5546 15.664C66.2666 15.2267 65.8719 15.008 65.3706 15.008ZM74.9996 13.104C75.8103 13.104 76.5036 13.2587 77.0796 13.568C77.6663 13.8773 78.1196 14.3253 78.4396 14.912C78.7596 15.4987 78.9196 16.2187 78.9196 17.072V18.224H73.2876C73.3089 18.896 73.5063 19.424 73.8796 19.808C74.2636 20.192 74.7916 20.384 75.4636 20.384C76.0289 20.384 76.5409 20.3307 76.9996 20.224C77.4583 20.1067 77.9329 19.9307 78.4236 19.696V21.536C77.9969 21.7493 77.5436 21.904 77.0636 22C76.5943 22.1067 76.0236 22.16 75.3516 22.16C74.4769 22.16 73.7036 22 73.0316 21.68C72.3596 21.3493 71.8316 20.8533 71.4476 20.192C71.0636 19.5307 70.8716 18.6987 70.8716 17.696C70.8716 16.672 71.0423 15.824 71.3836 15.152C71.7356 14.4693 72.2209 13.9573 72.8396 13.616C73.4583 13.2747 74.1783 13.104 74.9996 13.104ZM75.0156 14.8C74.5569 14.8 74.1729 14.9493 73.8636 15.248C73.5649 15.5467 73.3889 16.0107 73.3356 16.64H76.6796C76.6796 16.288 76.6156 15.9733 76.4876 15.696C76.3703 15.4187 76.1889 15.2 75.9436 15.04C75.6983 14.88 75.3889 14.8 75.0156 14.8ZM85.7327 13.104C85.8501 13.104 85.9887 13.1093 86.1487 13.12C86.3087 13.1307 86.4367 13.1467 86.5327 13.168L86.3567 15.408C86.2821 15.3867 86.1701 15.3707 86.0207 15.36C85.8821 15.3387 85.7594 15.328 85.6527 15.328C85.3434 15.328 85.0447 15.3707 84.7567 15.456C84.4687 15.5307 84.2074 15.6533 83.9727 15.824C83.7487 15.9947 83.5674 16.224 83.4287 16.512C83.3007 16.7893 83.2367 17.136 83.2367 17.552V22H80.8527V13.264H82.6607L83.0127 14.736H83.1247C83.2954 14.4373 83.5087 14.1653 83.7647 13.92C84.0207 13.6747 84.3141 13.4773 84.6447 13.328C84.9861 13.1787 85.3487 13.104 85.7327 13.104ZM50.2944 35.944C50.2518 35.7627 50.1878 35.496 50.1024 35.144C50.0278 34.7813 49.9424 34.3973 49.8464 33.992C49.7504 33.576 49.6598 33.1973 49.5744 32.856C49.4891 32.504 49.4304 32.248 49.3984 32.088H49.3344C49.3024 32.248 49.2438 32.504 49.1584 32.856C49.0838 33.1973 48.9984 33.576 48.9024 33.992C48.8064 34.3973 48.7158 34.7813 48.6304 35.144C48.5451 35.5067 48.4811 35.784 48.4384 35.976L47.7344 39H45.1744L42.6944 30.264H45.0624L46.0704 34.136C46.1451 34.4027 46.2091 34.7227 46.2624 35.096C46.3264 35.4693 46.3851 35.832 46.4384 36.184C46.4918 36.5253 46.5291 36.7973 46.5504 37H46.6144C46.6251 36.8507 46.6464 36.6533 46.6784 36.408C46.7104 36.152 46.7478 35.8907 46.7904 35.624C46.8438 35.3573 46.8864 35.1173 46.9184 34.904C46.9611 34.68 46.9931 34.5307 47.0144 34.456L48.0864 30.264H50.7104L51.7344 34.456C51.7771 34.6053 51.8251 34.8453 51.8784 35.176C51.9424 35.5067 51.9958 35.8427 52.0384 36.184C52.0918 36.5253 52.1184 36.7973 52.1184 37H52.1824C52.2038 36.8187 52.2411 36.5573 52.2944 36.216C52.3478 35.864 52.4064 35.496 52.4704 35.112C52.5451 34.728 52.6198 34.4027 52.6944 34.136L53.7344 30.264H56.0704L53.5584 39H50.9664L50.2944 35.944ZM61.0855 30.104C61.8962 30.104 62.5895 30.2587 63.1655 30.568C63.7522 30.8773 64.2055 31.3253 64.5255 31.912C64.8455 32.4987 65.0055 33.2187 65.0055 34.072V35.224H59.3735C59.3949 35.896 59.5922 36.424 59.9655 36.808C60.3495 37.192 60.8775 37.384 61.5495 37.384C62.1149 37.384 62.6269 37.3307 63.0855 37.224C63.5442 37.1067 64.0189 36.9307 64.5095 36.696V38.536C64.0829 38.7493 63.6295 38.904 63.1495 39C62.6802 39.1067 62.1095 39.16 61.4375 39.16C60.5629 39.16 59.7895 39 59.1175 38.68C58.4455 38.3493 57.9175 37.8533 57.5335 37.192C57.1495 36.5307 56.9575 35.6987 56.9575 34.696C56.9575 33.672 57.1282 32.824 57.4695 32.152C57.8215 31.4693 58.3069 30.9573 58.9255 30.616C59.5442 30.2747 60.2642 30.104 61.0855 30.104ZM61.1015 31.8C60.6429 31.8 60.2589 31.9493 59.9495 32.248C59.6509 32.5467 59.4749 33.0107 59.4215 33.64H62.7655C62.7655 33.288 62.7015 32.9733 62.5735 32.696C62.4562 32.4187 62.2749 32.2 62.0295 32.04C61.7842 31.88 61.4749 31.8 61.1015 31.8ZM70.5387 30.104C71.3493 30.104 72.0427 30.2587 72.6187 30.568C73.2053 30.8773 73.6587 31.3253 73.9787 31.912C74.2987 32.4987 74.4587 33.2187 74.4587 34.072V35.224H68.8267C68.848 35.896 69.0453 36.424 69.4187 36.808C69.8027 37.192 70.3307 37.384 71.0027 37.384C71.568 37.384 72.08 37.3307 72.5387 37.224C72.9973 37.1067 73.472 36.9307 73.9627 36.696V38.536C73.536 38.7493 73.0827 38.904 72.6027 39C72.1333 39.1067 71.5627 39.16 70.8907 39.16C70.016 39.16 69.2427 39 68.5707 38.68C67.8987 38.3493 67.3707 37.8533 66.9867 37.192C66.6027 36.5307 66.4107 35.6987 66.4107 34.696C66.4107 33.672 66.5813 32.824 66.9227 32.152C67.2747 31.4693 67.76 30.9573 68.3787 30.616C68.9973 30.2747 69.7173 30.104 70.5387 30.104ZM70.5547 31.8C70.096 31.8 69.712 31.9493 69.4027 32.248C69.104 32.5467 68.928 33.0107 68.8747 33.64H72.2187C72.2187 33.288 72.1547 32.9733 72.0267 32.696C71.9093 32.4187 71.728 32.2 71.4827 32.04C71.2373 31.88 70.928 31.8 70.5547 31.8ZM78.7758 32.28C78.7758 32.6107 78.7598 32.9413 78.7278 33.272C78.7065 33.592 78.6798 33.9173 78.6478 34.248H78.6798C78.7865 34.0987 78.8931 33.9493 78.9998 33.8C79.1171 33.6507 79.2345 33.5013 79.3518 33.352C79.4691 33.2027 79.5918 33.0587 79.7198 32.92L82.1678 30.264H84.8558L81.3838 34.056L85.0638 39H82.3118L79.7998 35.464L78.7758 36.28V39H76.3918V26.84H78.7758V32.28Z" fill="white"/>
<defs>
<filter id="filter0_d_365_10661" x="0.113281" y="0" width="109.387" height="53.4062" filterUnits="userSpaceOnUse" color-interpolation-filters="sRGB">
<feFlood flood-opacity="0" result="BackgroundImageFix"/>
<feColorMatrix in="SourceAlpha" type="matrix" values="0 0 0 0 0 0 0 0 0 0 0 0 0 0 0 0 0 0 127 0" result="hardAlpha"/>
<feOffset dx="-1" dy="2"/>
<feGaussianBlur stdDeviation="2"/>
<feComposite in2="hardAlpha" operator="out"/>
<feColorMatrix type="matrix" values="0 0 0 0 0 0 0 0 0 0 0 0 0 0 0 0 0 0 0.25 0"/>
<feBlend mode="normal" in2="BackgroundImageFix" result="effect1_dropShadow_365_10661"/>
<feBlend mode="normal" in="SourceGraphic" in2="effect1_dropShadow_365_10661" result="shape"/>
</filter>
</defs>
</svg>
