<svg width="110" height="54" viewBox="0 0 110 54" fill="none" xmlns="http://www.w3.org/2000/svg">
<g filter="url(#filter0_d_365_10660)">
<path d="M107 47.4062L7.61691 47.4062C5.94768 47.4062 5.01295 45.4821 6.04476 44.17L20.3802 25.9398C20.9507 25.2144 20.9507 24.1927 20.3802 23.4673L6.04476 5.23711C5.01295 3.92498 5.94767 2.00084 7.61691 2.00084L107 2.00084L107 47.4062Z" fill="#BC0D2A"/>
</g>
<path d="M46.9176 12.432C46.459 12.432 46.0483 12.5227 45.6856 12.704C45.3336 12.8853 45.035 13.1467 44.7896 13.488C44.5443 13.8187 44.3576 14.224 44.2296 14.704C44.1123 15.184 44.0536 15.7227 44.0536 16.32C44.0536 17.1307 44.1496 17.824 44.3416 18.4C44.5443 18.9653 44.859 19.3973 45.2856 19.696C45.7123 19.9947 46.2563 20.144 46.9176 20.144C47.387 20.144 47.851 20.0907 48.3096 19.984C48.779 19.8773 49.2856 19.728 49.8296 19.536V21.568C49.3283 21.7707 48.8323 21.92 48.3416 22.016C47.851 22.112 47.3016 22.16 46.6936 22.16C45.5203 22.16 44.5496 21.92 43.7816 21.44C43.0243 20.9493 42.4643 20.2667 42.1016 19.392C41.739 18.5067 41.5576 17.4773 41.5576 16.304C41.5576 15.44 41.675 14.6507 41.9096 13.936C42.1443 13.2107 42.4856 12.5867 42.9336 12.064C43.3923 11.5413 43.9523 11.136 44.6136 10.848C45.2856 10.56 46.0536 10.416 46.9176 10.416C47.483 10.416 48.0483 10.4907 48.6136 10.64C49.1896 10.7787 49.739 10.9707 50.2616 11.216L49.4776 13.184C49.051 12.9813 48.619 12.8053 48.1816 12.656C47.755 12.5067 47.3336 12.432 46.9176 12.432ZM50.8171 13.264H53.4251L55.0731 18.176C55.1265 18.336 55.1691 18.496 55.2011 18.656C55.2438 18.816 55.2758 18.9813 55.2971 19.152C55.3291 19.3227 55.3505 19.504 55.3611 19.696H55.4091C55.4411 19.4187 55.4838 19.1573 55.5371 18.912C55.6011 18.656 55.6705 18.4107 55.7451 18.176L57.3611 13.264H59.9211L56.2251 23.12C56.0011 23.7173 55.7078 24.2187 55.3451 24.624C54.9931 25.0293 54.5825 25.3333 54.1131 25.536C53.6438 25.7387 53.1318 25.84 52.5771 25.84C52.3105 25.84 52.0758 25.824 51.8731 25.792C51.6811 25.7707 51.5105 25.744 51.3611 25.712V23.824C51.4785 23.8453 51.6171 23.8667 51.7771 23.888C51.9478 23.9093 52.1238 23.92 52.3051 23.92C52.6358 23.92 52.9185 23.8507 53.1531 23.712C53.3985 23.5733 53.6011 23.3813 53.7611 23.136C53.9211 22.9013 54.0491 22.6453 54.1451 22.368L54.2891 21.936L50.8171 13.264ZM63.5585 12.672C63.5585 13.0027 63.5478 13.328 63.5265 13.648C63.5052 13.968 63.4838 14.2187 63.4625 14.4H63.5585C63.7932 14.0373 64.1078 13.7333 64.5025 13.488C64.8972 13.232 65.4092 13.104 66.0385 13.104C67.0198 13.104 67.8145 13.488 68.4225 14.256C69.0305 15.0133 69.3345 16.1333 69.3345 17.616C69.3345 18.608 69.1905 19.4453 68.9025 20.128C68.6252 20.8 68.2358 21.3067 67.7345 21.648C67.2332 21.9893 66.6465 22.16 65.9745 22.16C65.3345 22.16 64.8278 22.048 64.4545 21.824C64.0918 21.5893 63.7932 21.328 63.5585 21.04H63.3985L62.9985 22H61.1745V9.84H63.5585V12.672ZM65.2705 15.008C64.8545 15.008 64.5238 15.0933 64.2785 15.264C64.0332 15.4347 63.8518 15.696 63.7345 16.048C63.6278 16.3893 63.5692 16.8213 63.5585 17.344V17.6C63.5585 18.4427 63.6812 19.0933 63.9265 19.552C64.1825 20 64.6412 20.224 65.3025 20.224C65.7932 20.224 66.1825 20 66.4705 19.552C66.7585 19.0933 66.9025 18.4373 66.9025 17.584C66.9025 16.7307 66.7532 16.0907 66.4545 15.664C66.1665 15.2267 65.7718 15.008 65.2705 15.008ZM74.8995 13.104C75.7102 13.104 76.4035 13.2587 76.9795 13.568C77.5662 13.8773 78.0195 14.3253 78.3395 14.912C78.6595 15.4987 78.8195 16.2187 78.8195 17.072V18.224H73.1875C73.2088 18.896 73.4062 19.424 73.7795 19.808C74.1635 20.192 74.6915 20.384 75.3635 20.384C75.9288 20.384 76.4408 20.3307 76.8995 20.224C77.3582 20.1067 77.8328 19.9307 78.3235 19.696V21.536C77.8968 21.7493 77.4435 21.904 76.9635 22C76.4942 22.1067 75.9235 22.16 75.2515 22.16C74.3768 22.16 73.6035 22 72.9315 21.68C72.2595 21.3493 71.7315 20.8533 71.3475 20.192C70.9635 19.5307 70.7715 18.6987 70.7715 17.696C70.7715 16.672 70.9422 15.824 71.2835 15.152C71.6355 14.4693 72.1208 13.9573 72.7395 13.616C73.3582 13.2747 74.0782 13.104 74.8995 13.104ZM74.9155 14.8C74.4568 14.8 74.0728 14.9493 73.7635 15.248C73.4648 15.5467 73.2888 16.0107 73.2355 16.64H76.5795C76.5795 16.288 76.5155 15.9733 76.3875 15.696C76.2702 15.4187 76.0888 15.2 75.8435 15.04C75.5982 14.88 75.2888 14.8 74.9155 14.8ZM85.6326 13.104C85.75 13.104 85.8886 13.1093 86.0486 13.12C86.2086 13.1307 86.3366 13.1467 86.4326 13.168L86.2566 15.408C86.182 15.3867 86.07 15.3707 85.9206 15.36C85.782 15.3387 85.6593 15.328 85.5526 15.328C85.2433 15.328 84.9446 15.3707 84.6566 15.456C84.3686 15.5307 84.1073 15.6533 83.8726 15.824C83.6486 15.9947 83.4673 16.224 83.3286 16.512C83.2006 16.7893 83.1366 17.136 83.1366 17.552V22H80.7526V13.264H82.5606L82.9126 14.736H83.0246C83.1953 14.4373 83.4086 14.1653 83.6646 13.92C83.9206 13.6747 84.214 13.4773 84.5446 13.328C84.886 13.1787 85.2486 13.104 85.6326 13.104ZM50.1943 35.944C50.1517 35.7627 50.0877 35.496 50.0023 35.144C49.9277 34.7813 49.8423 34.3973 49.7463 33.992C49.6503 33.576 49.5597 33.1973 49.4743 32.856C49.389 32.504 49.3303 32.248 49.2983 32.088H49.2343C49.2023 32.248 49.1437 32.504 49.0583 32.856C48.9837 33.1973 48.8983 33.576 48.8023 33.992C48.7063 34.3973 48.6157 34.7813 48.5303 35.144C48.445 35.5067 48.381 35.784 48.3383 35.976L47.6343 39H45.0743L42.5943 30.264H44.9623L45.9703 34.136C46.045 34.4027 46.109 34.7227 46.1623 35.096C46.2263 35.4693 46.285 35.832 46.3383 36.184C46.3917 36.5253 46.429 36.7973 46.4503 37H46.5143C46.525 36.8507 46.5463 36.6533 46.5783 36.408C46.6103 36.152 46.6477 35.8907 46.6903 35.624C46.7437 35.3573 46.7863 35.1173 46.8183 34.904C46.861 34.68 46.893 34.5307 46.9143 34.456L47.9863 30.264H50.6103L51.6343 34.456C51.677 34.6053 51.725 34.8453 51.7783 35.176C51.8423 35.5067 51.8957 35.8427 51.9383 36.184C51.9917 36.5253 52.0183 36.7973 52.0183 37H52.0823C52.1037 36.8187 52.141 36.5573 52.1943 36.216C52.2477 35.864 52.3063 35.496 52.3703 35.112C52.445 34.728 52.5197 34.4027 52.5943 34.136L53.6343 30.264H55.9703L53.4583 39H50.8663L50.1943 35.944ZM60.9855 30.104C61.7961 30.104 62.4895 30.2587 63.0655 30.568C63.6521 30.8773 64.1055 31.3253 64.4255 31.912C64.7455 32.4987 64.9055 33.2187 64.9055 34.072V35.224H59.2735C59.2948 35.896 59.4921 36.424 59.8655 36.808C60.2495 37.192 60.7775 37.384 61.4495 37.384C62.0148 37.384 62.5268 37.3307 62.9855 37.224C63.4441 37.1067 63.9188 36.9307 64.4095 36.696V38.536C63.9828 38.7493 63.5295 38.904 63.0495 39C62.5801 39.1067 62.0095 39.16 61.3375 39.16C60.4628 39.16 59.6895 39 59.0175 38.68C58.3455 38.3493 57.8175 37.8533 57.4335 37.192C57.0495 36.5307 56.8575 35.6987 56.8575 34.696C56.8575 33.672 57.0281 32.824 57.3695 32.152C57.7215 31.4693 58.2068 30.9573 58.8255 30.616C59.4441 30.2747 60.1641 30.104 60.9855 30.104ZM61.0015 31.8C60.5428 31.8 60.1588 31.9493 59.8495 32.248C59.5508 32.5467 59.3748 33.0107 59.3215 33.64H62.6655C62.6655 33.288 62.6015 32.9733 62.4735 32.696C62.3561 32.4187 62.1748 32.2 61.9295 32.04C61.6841 31.88 61.3748 31.8 61.0015 31.8ZM70.4386 30.104C71.2492 30.104 71.9426 30.2587 72.5186 30.568C73.1052 30.8773 73.5586 31.3253 73.8786 31.912C74.1986 32.4987 74.3586 33.2187 74.3586 34.072V35.224H68.7266C68.7479 35.896 68.9452 36.424 69.3186 36.808C69.7026 37.192 70.2306 37.384 70.9026 37.384C71.4679 37.384 71.9799 37.3307 72.4386 37.224C72.8972 37.1067 73.3719 36.9307 73.8626 36.696V38.536C73.4359 38.7493 72.9826 38.904 72.5026 39C72.0332 39.1067 71.4626 39.16 70.7906 39.16C69.9159 39.16 69.1426 39 68.4706 38.68C67.7986 38.3493 67.2706 37.8533 66.8866 37.192C66.5026 36.5307 66.3106 35.6987 66.3106 34.696C66.3106 33.672 66.4812 32.824 66.8226 32.152C67.1746 31.4693 67.6599 30.9573 68.2786 30.616C68.8972 30.2747 69.6172 30.104 70.4386 30.104ZM70.4546 31.8C69.9959 31.8 69.6119 31.9493 69.3026 32.248C69.0039 32.5467 68.8279 33.0107 68.7746 33.64H72.1186C72.1186 33.288 72.0546 32.9733 71.9266 32.696C71.8092 32.4187 71.6279 32.2 71.3826 32.04C71.1372 31.88 70.8279 31.8 70.4546 31.8ZM78.6757 32.28C78.6757 32.6107 78.6597 32.9413 78.6277 33.272C78.6064 33.592 78.5797 33.9173 78.5477 34.248H78.5797C78.6864 34.0987 78.793 33.9493 78.8997 33.8C79.017 33.6507 79.1344 33.5013 79.2517 33.352C79.369 33.2027 79.4917 33.0587 79.6197 32.92L82.0677 30.264H84.7557L81.2837 34.056L84.9637 39H82.2117L79.6997 35.464L78.6757 36.28V39H76.2917V26.84H78.6757V32.28Z" fill="white"/>
<defs>
<filter id="filter0_d_365_10660" x="0.613281" y="0" width="109.387" height="53.4062" filterUnits="userSpaceOnUse" color-interpolation-filters="sRGB">
<feFlood flood-opacity="0" result="BackgroundImageFix"/>
<feColorMatrix in="SourceAlpha" type="matrix" values="0 0 0 0 0 0 0 0 0 0 0 0 0 0 0 0 0 0 127 0" result="hardAlpha"/>
<feOffset dx="-1" dy="2"/>
<feGaussianBlur stdDeviation="2"/>
<feComposite in2="hardAlpha" operator="out"/>
<feColorMatrix type="matrix" values="0 0 0 0 0 0 0 0 0 0 0 0 0 0 0 0 0 0 0.25 0"/>
<feBlend mode="normal" in2="BackgroundImageFix" result="effect1_dropShadow_365_10660"/>
<feBlend mode="normal" in="SourceGraphic" in2="effect1_dropShadow_365_10660" result="shape"/>
</filter>
</defs>
</svg>
